<svg role="img" viewBox="0 0 24 24" xmlns="http://www.w3.org/2000/svg"><title>GitHub</title><path d="M12 .297C5.37.297 0 5.667 0 12.297c0 5.303 3.438 9.8 8.205 11.387.6.113.82-.258.82-.577 0-.285-.01-1.04-.015-2.04-3.338.724-4.042-1.61-4.042-1.61-.546-1.387-1.333-1.756-1.333-1.756-1.09-.745.083-.73.083-.73 1.205.085 1.84 1.238 1.84 1.238 1.07 1.833 2.807 1.304 3.492.997.108-.775.418-1.305.762-1.605-2.665-.3-5.467-1.332-5.467-5.93 0-1.31.467-2.38 1.235-3.22-.123-.303-.535-1.523.117-3.176 0 0 1.008-.322 3.3 1.23a11.48 11.48 0 0 1 3.003-.404c1.02.005 2.045.137 3.003.404 2.29-1.552 3.296-1.23 3.296-1.23.654 1.653.242 2.873.12 3.176.77.84 1.233 1.91 1.233 3.22 0 4.61-2.807 5.625-5.48 5.92.43.37.823 1.102.823 2.222 0 1.606-.015 2.9-.015 3.293 0 .32.216.694.825.576C20.565 22.092 24 17.597 24 12.297c0-6.63-5.373-12-12-12z"/></svg>
